<svg xmlns="http://www.w3.org/2000/svg" viewBox="0 0 3000 3000" width="3000" height="3000"><g transform="translate(45.6 760.8) rotate(0.0 1434.0 845.4) scale(1.3289984874996292 1.3278422798552472)"><svg width="2158.016" height="1273.344" viewBox="0 0 2158.016 1273.344"><linearGradient id="a" gradientTransform="matrix(1 0 0 -1 952.5 4090.424)" gradientUnits="userSpaceOnUse" x1="-952.5" x2="1205.516" y1="3453.752" y2="3453.752"><stop offset="0" stop-color="#4f82e3" stop-opacity="0"/><stop offset=".49" stop-color="#4f82e3"/><stop offset="1" stop-color="#4f82e3" stop-opacity="0"/></linearGradient><path d="M0 1273.344S197.432 425.352 341.045 193.092C484.657-39.169 719.316-67.556 863.207 138.759c143.891 206.314 287.712 670.415 431.603 747.973 143.891 77.561 287.712-232.05 431.603-309.4 143.891-77.349 287.712 77.349 359.658 154.701l71.946 77.14v464.171z" fill="url(#a)" fill-rule="evenodd"/></svg></g><g transform="translate(1372.8 904.8) rotate(0.0 739.8000000000001 756.6) scale(1.20850165723835 1.2075690928707776)"><svg width="1224.326" height="1253.096" viewBox="0 0 1224.326 1253.096"><path d="M137.457 0v115.08H0v3.197h137.457v140.654H0v3.197h137.457v134.26H0v3.197h137.457v121.474H0v3.197h137.457V664.91H0v3.197h137.457v134.26H0v3.197h137.457v140.654H0v3.197h137.457v140.654H0v3.197h137.457V1253.1h3.197v-159.834h137.457V1253.1h3.197v-159.834h140.654V1253.1h3.197v-159.834h134.26V1253.1h3.197v-159.834H684.09V1253.1h3.197v-159.834h140.654V1253.1h3.197v-159.834h134.263V1253.1h3.197v-159.834h131.064V1253.1h3.197v-159.834h121.47v-3.197h-121.47V949.415h121.47v-3.197h-121.47V805.564h121.47v-3.197h-121.47v-134.26h121.47v-3.197h-121.47V524.256h121.47v-3.197h-121.47V399.585h121.47v-3.197h-121.47v-134.26h121.47v-3.197h-121.47V118.277h121.47v-3.197h-121.47V0h-3.197v115.08H968.598V0h-3.197v115.08H831.138V0h-3.197v115.08H687.287V0h-3.197v115.08H562.616V0h-3.197v115.08h-134.26V0h-3.197v115.08H281.308V0h-3.197v115.08H140.654V0zm962.202 1090.065V949.411H968.595v140.654zm-134.26 0V949.411H831.136v140.654zm-137.46 0V949.411H687.285v140.654zm-143.85 0V949.411H562.615v140.654zm-124.67 0V949.411h-134.26v140.654zm-137.457 0V949.411H281.308v140.654zm-143.85 0V949.411H140.655v140.654zm0-143.85H140.655V805.561h137.457zm143.85 0H281.308V805.561h140.654zm137.457 0h-134.26V805.561h134.26zm124.67 0H562.615V805.561h121.474zm143.85 0H687.285V805.561h140.654zm137.46 0H831.136V805.561h134.263zm134.26 0H968.595V805.561h131.064zm0-143.85v-134.26H968.595v134.26zm-134.26 0v-134.26H831.136v134.26zm-137.46 0v-134.26H687.285v134.26zm-143.85 0v-134.26H562.615v134.26zm-124.67 0v-134.26h-134.26v134.26zm-137.457 0v-134.26H281.308v134.26zm-143.85 0v-134.26H140.655v134.26zM140.655 521.058V399.584h137.457v121.474zm0-124.67h137.457v-134.26H140.655zm140.654 124.67V399.584h140.654v121.474zm0-124.67h140.654v-134.26H281.309zm143.85 124.67V399.584h134.26v121.474zm0-124.67h134.26v-134.26h-134.26zm137.457 124.67V399.584H684.09v121.474zm0-124.67H684.09v-134.26H562.616zm124.67 124.67V399.584H827.94v121.474zm0-124.67H827.94v-134.26H687.286zm143.85 124.67V399.584h134.263v121.474zm0-124.67h134.263v-134.26H831.136zm137.46 124.67V399.584h131.064v121.474zm0-124.67h131.064v-134.26H968.596zm131.064 268.52V524.254H968.596v140.654zm-134.26 0V524.254H831.137v140.654zm-137.46 0V524.254H687.286v140.654zm-143.85 0V524.254H562.616v140.654zm-124.67 0V524.254H425.16v140.654zm-137.457 0V524.254H281.309v140.654zm-143.85 0V524.254H140.656v140.654zM140.656 258.931h137.457V118.277H140.656zm140.654 0h140.654V118.277H281.31zm143.85 0h134.26V118.277H425.16zm137.457 0h121.474V118.277H562.617zm124.67 0h140.654V118.277H687.287zm143.85 0H965.4V118.277H831.137zm137.46 0h131.064V118.277H968.597z" fill="#fff" fill-rule="evenodd"/></svg></g><g transform="translate(1200.0 768.0) rotate(0.0 516.5999999999999 746.3999999999999) scale(1.3341097993541213 1.3333154700499723)"><svg width="774.449" height="1119.615" viewBox="0 0 774.449 1119.615"><linearGradient id="b" gradientTransform="matrix(1 0 0 -1 952.5 8184.705)" gradientUnits="userSpaceOnUse" x1="-226.064" x2="-904.486" y1="7037.37" y2="8212.426"><stop offset="0" stop-color="#fff"/><stop offset=".526" stop-color="#e1e1e1" stop-opacity=".5"/><stop offset="1" stop-color="#fff" stop-opacity=".2"/></linearGradient><path d="M774.449 0H0v1119.615h774.449z" fill="url(#b)"/></svg></g><g transform="translate(466.79999999999995 1197.6) rotate(0.0 650.4 457.20000000000005) scale(1.322907100557415 1.3245781383766966)"><svg width="983.289" height="690.333" viewBox="0 0 983.289 690.333"><linearGradient id="c" gradientTransform="matrix(1 0 0 -1 952.5 5789.771)" gradientUnits="userSpaceOnUse" x1="-331.458" x2="-590.252" y1="4984.198" y2="5797.691"><stop offset="0" stop-color="#fff"/><stop offset=".521" stop-color="#80d28a"/><stop offset="1" stop-color="#63ad8f"/></linearGradient><path d="M983.289 107.321H0v583.012h983.289z" fill="url(#c)"/><path d="M983.289 0H0v113.122h983.289z" fill="#111"/><g fill="#fff"><path d="M78.315 78.315c11.214 0 20.304-9.74 20.304-21.754s-9.09-21.754-20.304-21.754-20.304 9.74-20.304 21.754 9.09 21.754 20.304 21.754zm59.462 0c12.014 0 21.754-9.74 21.754-21.754s-9.74-21.754-21.754-21.754-21.754 9.74-21.754 21.754 9.74 21.754 21.754 21.754zm59.461 0c11.214 0 20.304-9.74 20.304-21.754s-9.09-21.754-20.304-21.754-20.304 9.74-20.304 21.754 9.09 21.754 20.304 21.754z"/></g></svg></g><g transform="translate(1566.0 403.2) rotate(0.0 540.5999999999999 281.4) scale(1.2003663715340418 1.2015858884113575)"><svg width="900.725" height="468.381" viewBox="0 0 900.725 468.381"><linearGradient id="d" gradientTransform="matrix(1 0 0 -1 -5046.9233 24078.7363)" gradientUnits="userSpaceOnUse" x1="5233.021" x2="5963.605" y1="23890.69" y2="23616.975"><stop offset="0" stop-color="#63ad8f"/><stop offset="1" stop-color="#63ad8f" stop-opacity="0"/></linearGradient><path clip-rule="evenodd" d="M132.106 466.538C57.283 454.985 0 390.306 0 312.249c0-86.226 69.901-156.126 156.127-156.126 27.918 0 54.125 7.328 76.801 20.166C254.072 75.601 343.388 0 450.364 0c106.972 0 196.289 75.601 217.433 176.288 22.676-12.838 48.886-20.166 76.804-20.166 86.226 0 156.124 69.9 156.124 156.126 0 78.058-57.283 142.736-132.107 154.289v1.843H132.106z" fill="url(#d)" fill-rule="evenodd"/><g fill="#fff"><path d="m554.373 386.136 16.449 19.598-27.429 5.043-9.233 1.696-15.802 2.912-20.856 3.837 1.619-4.57 7.031-19.851a73.241 73.241 0 0 0 1.802-.672l-.922-1.862 3.021-8.506 8.436-23.845 4.112-11.626 20.952 24.965c28.117-23.416 46.041-58.885 46.041-98.588.039-25.735-7.648-50.875-22.049-72.095l10.817-13.762c18.193 24.841 27.995 54.946 27.947 85.857-.01 44.865-20.222 84.956-51.936 111.469zM436.699 118.407l-5.235 14.539-7.082 19.668-.419 1.171-1.248 3.481-11.489 31.902-.79-.929-17.012-19.903c-33.224 23.012-54.963 61.264-54.963 104.527-.045 27.016 8.602 53.339 24.683 75.129l-10.897 13.63c-19.975-25.326-30.805-56.586-30.754-88.758 0-48.426 24.04-91.271 60.909-117.424l-20.139-23.573 18.401-3.327 18.807-3.407 6.612-1.196z"/></g></svg></g><g transform="translate(2055.6 1220.3999999999999) rotate(-42.90258881477906 174.5999999999999 183.0) scale(0.8683197565123977 0.8704255096507835)"><svg width="402.156" height="420.484" viewBox="0 0 402.156 420.484"><linearGradient id="e" gradientTransform="matrix(1 0 0 -1 952.5 22750.037)" gradientUnits="userSpaceOnUse" x1="-829.429" x2="-710.783" y1="22731.692" y2="22393.076"><stop offset="0" stop-color="#63ad8f"/><stop offset="1" stop-color="#fff"/></linearGradient><linearGradient xmlns:xlink="http://www.w3.org/1999/xlink" id="g" x1="-950.264" x2="-644.618" xlink:href="#e" y1="22486.369" y2="22330.297"/><linearGradient xmlns:xlink="http://www.w3.org/1999/xlink" id="h" x1="-614.947" x2="-639.482" xlink:href="#e" y1="22534.826" y2="22328.74"/><linearGradient id="f" gradientTransform="matrix(1 0 0 -1 952.5 22750.037)" gradientUnits="userSpaceOnUse" x1="-632.756" x2="-901.412" y1="22562.9" y2="22411.446"><stop offset="0" stop-color="#63ad8f"/><stop offset="1" stop-color="#fbfdff"/></linearGradient><linearGradient id="i" gradientTransform="matrix(1 0 0 -1 952.5 22750.037)" gradientUnits="userSpaceOnUse" x1="-909.549" x2="-858.869" y1="22421.159" y2="22746.813"><stop offset="0" stop-color="#63ad8f"/><stop offset="1" stop-color="#fbfdff" stop-opacity=".99"/></linearGradient><linearGradient xmlns:xlink="http://www.w3.org/1999/xlink" id="j" x1="-856.839" x2="-550.255" xlink:href="#f" y1="22749.859" y2="22593.299"/><path d="M357.935 95.236 95.465.511.971 263.282l263.306 94.422 93.657-262.468z" fill="url(#e)"/><path d="m1.138 263.481 263.005 94.189 43.827 61.743-263.002-94.189z" fill="url(#g)"/><path d="m263.556 358.238 94.189-263.004 43.649 62.246-94.189 263.004z" fill="url(#h)"/><path d="m401.515 157.316-263.004-94.19-94.008 262.5 262.821 94.695 94.192-263.005z" fill="url(#f)" fill-opacity=".8"/><path d="m94.189 0 43.356 63.141-93.66 261.175L0 262.771z" fill="url(#i)"/><path d="m95.508.478 263.186 93.686 43.463 62.747-263-94.187z" fill="url(#j)"/></svg></g><g transform="translate(823.1999999999999 1416.0) rotate(0.0 294.00000000000006 313.19999999999993) scale(1.2009141652727486 1.2008534801554358)"><svg width="489.627" height="521.629" viewBox="0 0 489.627 521.629"><path d="M310.417 0H0v454.425h310.417z" fill="#ededed"/><path d="M489.627 73.604H179.21v448.025h310.417z" fill="#fff"/><path d="m409.622 275.215-59.418 33.663-59.421 33.541v-43.017H51.203v-46.131h239.581v-45.26l59.421 33.663z" fill="#80d28a"/></svg></g><g transform="translate(1508.3999999999999 1861.1999999999998) rotate(0.0 493.80000000000007 387.60000000000014) scale(1.2494259548126811 1.248642954477365)"><svg width="790.443" height="620.834" viewBox="0 0 790.443 620.834"><linearGradient id="k"><stop offset="0" stop-color="#fff"/><stop offset=".5" stop-color="#a6dbf8"/><stop offset="1" stop-color="#4f82e3"/></linearGradient><linearGradient xmlns:xlink="http://www.w3.org/1999/xlink" id="l" gradientTransform="matrix(1 0 0 -1 -5046.9233 28396.7422)" gradientUnits="userSpaceOnUse" x1="5810.265" x2="5062.732" xlink:href="#k" y1="28292.736" y2="28292.736"/><linearGradient xmlns:xlink="http://www.w3.org/1999/xlink" id="m" gradientTransform="matrix(1 0 0 -1 -5046.9233 28396.7422)" gradientUnits="userSpaceOnUse" x1="5801.568" x2="5124.501" xlink:href="#k" y1="28030.418" y2="28135.734"/><linearGradient xmlns:xlink="http://www.w3.org/1999/xlink" id="n" gradientTransform="matrix(1 0 0 -1 -5046.9233 28396.7422)" gradientUnits="userSpaceOnUse" x1="5800.782" x2="5218.078" xlink:href="#k" y1="27821.598" y2="27916.35"/><path d="M32.002 0h726.44c17.674 0 32.002 14.328 32.002 32.002V176.01c0 17.674-14.328 32.002-32.002 32.002H32.002C14.328 208.011 0 193.684 0 176.01V32.002C0 14.328 14.328 0 32.002 0z" fill="url(#l)"/><path d="M32.002 208.011h726.44c17.674 0 32.002 14.328 32.002 32.002v140.808c0 17.674-14.328 32.002-32.002 32.002H32.002C14.328 412.823 0 398.495 0 380.821V240.013c0-17.674 14.328-32.002 32.002-32.002z" fill="url(#m)"/><path d="M32.002 412.823h726.44c17.674 0 32.002 14.328 32.002 32.002v144.008c0 17.674-14.328 32.002-32.002 32.002H32.002C14.328 620.834 0 606.506 0 588.832V444.824c0-17.674 14.328-32.001 32.002-32.001z" fill="url(#n)"/><g fill="#fff"><path d="M80.004 70.404h454.425v60.803H80.004zm483.227 0h51.203v60.803h-51.203zm0 208.011h51.203v57.603h-51.203zm0 211.212h51.203v60.803h-51.203zm99.205-419.223h51.203v60.803h-51.203zm0 208.011h51.203v57.603h-51.203zm0 211.212h51.203v60.803h-51.203zM80.004 278.415h454.425v57.603H80.004zm0 211.212h454.425v60.803H80.004z"/></g></svg></g></svg>