<svg xmlns="http://www.w3.org/2000/svg" viewBox="0 0 3000 2800" width="3000" height="2800"><g transform="translate(538.0 764.0) rotate(0.0 818.0 468.0) scale(2.002440627512996 2.0010390010197603)"><svg width="817.003" height="467.757" viewBox="0 0 817.003 467.757"><linearGradient id="a" gradientUnits="userSpaceOnUse" x1="441.372" x2="401.748" y1="496.208" y2="180.868"><stop offset="0" stop-color="#59b6e3"/><stop offset="1" stop-color="#98e8f5"/></linearGradient><path d="m786.93 202.69.008-.011-.969-1.207c-.237-.295-.472-.593-.712-.886l-56.197-69.964L21.554 358.058l57.599 71.724a95.374 95.374 0 0 0 2.167 2.698l.05.062h.002c18.157 21.768 46.034 35.215 79.426 35.215h481.971c78.963 0 155.53-62.754 170.942-141.703.246-1.26.479-2.524.699-3.79 8.055-46.344-3.073-88.465-27.478-119.574z" fill="url(#a)"/><path d="M606.622 76.093c-22.703.765-45.069 5.847-66.171 14.426C514.92 36.059 460.075 0 390.445 0 296.322 0 205.98 65.888 170.689 154.055c-8.077-1.833-16.625-2.807-25.574-2.807-67.24 0-131.36 54.509-143.216 121.748-11.856 67.24 33.041 121.748 100.281 121.748h481.971c78.963 0 155.53-62.753 170.941-141.703.246-1.26.479-2.524.699-3.79 16.959-97.573-51.069-176.466-149.169-173.159z" fill="#98e8f5"/></svg></g><g fill-opacity=".7" transform="translate(1120.0 1074.0) rotate(0.0 204.0 154.0) scale(2.00104957011766 2.0033693029185446)"><svg width="203.893" height="153.741" viewBox="0 0 203.893 153.741"><g fill="#FFF"><path d="M91.416 139.765c-1.162 4.659-4.42 8.758-8.541 11.274-2.701 1.677-5.845 2.702-8.92 2.702-7.733 0-12.42-6.243-10.491-13.976 1.928-7.733 9.727-13.976 17.461-13.976 1.677 0 3.226.326 4.578.885 4.881 1.91 7.424 7.035 5.914 13.091zM.202 42.446 11.168 57.06c.392.523 1.231.529 1.896.022 58.825-44.935 133.564-44.935 169.982 0 .411.508 1.253.501 1.907-.022l18.254-14.614c.678-.543.892-1.43.468-1.959C160.4-13.495 70.906-13.495.712 40.487c-.688.529-.916 1.417-.509 1.959z"/><path d="m165.986 72.246-18.291 14.641c-.65.521-1.487.529-1.904.029-3.745-4.489-8.114-8.244-12.944-11.302-25.933-16.522-65.161-12.722-97.408 11.311-.664.495-1.493.485-1.882-.033L22.553 72.233c-.41-.546-.176-1.442.519-1.968 49.618-37.56 112.433-37.563 143.349-.008l.009.01c.459.515.246 1.427-.444 1.98z"/><path d="m128.733 102.064-18.275 14.628c-.632.506-1.44.527-1.875.068-3.926-4.142-8.996-6.85-14.661-8.162-11.059-2.66-24.428.091-36.157 8.168-.662.456-1.457.434-1.836-.07l-10.981-14.628c-.415-.553-.171-1.465.543-1.984 21.762-15.83 47.402-19.838 66.714-11.937 6.51 2.638 12.315 6.605 16.975 11.939.453.519.242 1.427-.447 1.979z"/></g></svg></g><g transform="translate(534.0 600.0) rotate(0.0 971.0 767.0) scale(2.0001132916900546 2.0004016451803883)"><svg width="970.945" height="766.846" viewBox="0 0 970.945 766.846"><path d="m588.643 280.654-1.937-.5 57.08-221.27c3.837-14.875 17.247-25.264 32.608-25.264h216.009v2H676.394c-14.45 0-27.062 9.772-30.672 23.764l-57.08 221.27Zm-384.276 25.673H22.795c-7.098 0-13.663-3.218-18.01-8.83-4.348-5.611-5.824-12.772-4.051-19.646L63.255 35.485l1.937.5L2.67 278.351c-1.617 6.27-.271 12.802 3.695 17.921 3.966 5.119 9.955 8.054 16.43 8.054h181.572v2Zm689.142 395.328-1.937-.5 76.702-297.335c1.617-6.27.271-12.802-3.696-17.921-3.966-5.119-9.954-8.054-16.429-8.054h-329.46v-2h329.46c7.098 0 13.663 3.218 18.01 8.83 4.348 5.611 5.824 12.772 4.051 19.646l-76.702 297.335ZM148.15 685.708H38.088v-2H148.15c14.45 0 27.062-9.772 30.672-23.764l56.672-219.691 1.937.5-56.672 219.691c-3.837 14.875-17.247 25.264-32.608 25.264Z" style="fill:#0f3336"/><path transform="translate(227.362 463.248) rotate(-75.536)" style="fill:#0f3336" d="M325.212 83.899h174.84v2h-174.84z"/><path transform="translate(-311.674 804.831) rotate(-75.536)" style="fill:#0f3336" d="M195.166 602.55h336.768v2H195.166z"/><ellipse cx="204.367" cy="305.327" rx="8.348" ry="6.752" transform="translate(-151.758 214.966) rotate(-41.967)" style="fill-opacity:.55;fill:#fff"/><ellipse cx="389.176" cy="171.003" rx="8.348" ry="6.752" transform="translate(-14.539 304.098) rotate(-41.967)" style="fill-opacity:.55;fill:#fff"/><ellipse cx="587.675" cy="279.47" rx="8.348" ry="6.752" transform="translate(-36.162 464.652) rotate(-41.967)" style="fill-opacity:.55;fill:#fff"/><ellipse cx="619.697" cy="376.845" rx="8.348" ry="6.752" transform="translate(-93.064 511.039) rotate(-41.967)" style="fill-opacity:.55;fill:#fff"/><ellipse cx="236.462" cy="440.503" rx="8.348" ry="6.752" transform="translate(-233.919 271.096) rotate(-41.967)" style="fill-opacity:.55;fill:#fff"/><ellipse cx="405.61" cy="440.503" rx="8.348" ry="6.752" transform="translate(-190.539 384.205) rotate(-41.967)" style="fill-opacity:.55;fill:#fff"/><ellipse cx="587.675" cy="279.47" rx="17.477" ry="14.136" transform="translate(-36.162 464.652) rotate(-41.967)" style="fill-opacity:.55;fill:#fff;opacity:.5"/><ellipse cx="236.462" cy="440.503" rx="13.753" ry="11.124" transform="translate(-233.919 271.096) rotate(-41.967)" style="fill-opacity:.55;fill:#fff;opacity:.5"/><ellipse cx="204.367" cy="305.327" rx="24.274" ry="19.634" transform="translate(-151.758 214.966) rotate(-41.967)" style="fill-opacity:.55;fill:#fff;opacity:.5"/><ellipse cx="389.176" cy="171.003" rx="17.477" ry="14.136" transform="translate(-14.539 304.098) rotate(-41.967)" style="fill-opacity:.55;fill:#fff;opacity:.5"/><ellipse cx="405.649" cy="440.503" rx="17.477" ry="14.136" transform="translate(-190.529 384.232) rotate(-41.967)" style="fill-opacity:.55;fill:#fff;opacity:.5"/><ellipse cx="619.697" cy="376.845" rx="28.051" ry="22.688" transform="translate(-93.064 511.039) rotate(-41.967)" style="fill-opacity:.55;fill:#fff;opacity:.5"/></svg></g><g transform="translate(1264.0 368.0) rotate(0.0 165.0 140.0) scale(2.0044340510826983 2.0108730780003303)"><svg width="164.635" height="139.243" viewBox="0 0 164.635 139.243"><linearGradient id="b" gradientTransform="matrix(1 0 -.249328 1 2443.57 0)" gradientUnits="userSpaceOnUse" x1="-2298.188" x2="-2409.194" y1="112.719" y2="8.033"><stop offset="0" stop-color="#ff619e"/><stop offset="1" stop-color="#ffbde2"/></linearGradient><linearGradient xmlns:xlink="http://www.w3.org/1999/xlink" id="c" gradientTransform="matrix(1 0 -.49864699 1 4887.14 0)" x1="-4716.619" x2="-4847.536" xlink:href="#b" y1="121.816" y2="-1.647"/><path d="m162.901 15.225.008-.011-10.981-12.803L1.862 124.18l10.45 12.173v-.004c1.372 1.788 3.587 2.894 6.337 2.894h106.539c5.559 0 11.189-4.506 12.575-10.066l26.563-106.539c.732-2.937.123-5.573-1.425-7.413z" fill="url(#b)"/><path d="M114.406 126.671H7.867c-5.559 0-8.942-4.507-7.556-10.066L26.874 10.066C28.26 4.507 33.89 0 39.45 0h106.539c5.559 0 8.942 4.507 7.556 10.066l-26.563 106.539c-1.386 5.559-7.016 10.066-12.576 10.066z" fill="url(#c)"/><path d="M114.406 127.671H7.867c-3.165 0-5.881-1.36-7.453-3.732a1 1 0 0 1 1.667-1.105c1.212 1.829 3.267 2.837 5.786 2.837h106.539c5.12 0 10.326-4.175 11.605-9.308L152.574 9.824c.652-2.615.147-5.069-1.384-6.734a1 1 0 1 1 1.472-1.354c1.995 2.169 2.67 5.293 1.853 8.572l-26.563 106.539c-1.488 5.968-7.565 10.824-13.546 10.824z" fill="#0f3336"/><g fill="#fff"><ellipse cx="85.377" cy="35.936" rx="20.698" ry="16.141" transform="matrix(.74956834 -.66192696 .66192696 .74956834 -2.406 65.513)"/><path d="M66.683 109.012c17.528.104 35.327-8.419 48.266-21.568-3.892-15.669-17.29-26.434-35.944-26.545s-37.55 10.503-49.367 26.038c6.147 13.303 19.516 21.972 37.044 22.076z"/></g></svg></g><g transform="translate(2112.0 428.0) rotate(0.0 204.0 258.0) scale(2.005170193734826 2.0028334659498905)"><svg width="203.474" height="257.635" viewBox="0 0 203.474 257.635"><linearGradient id="d" gradientTransform="matrix(1 0 0 -1 0 15185.089)" gradientUnits="userSpaceOnUse" x1="-21.559" x2="186.695" y1="14927.229" y2="15169.328"><stop offset="0" stop-color="#59b6e3"/><stop offset="1" stop-color="#a6ffbb"/></linearGradient><path d="M200.446 17.071c-.441-.496-13.051-12.583-13.051-12.583l-6.553 8.536-98.517.138a11.988 11.988 0 0 0-11.619 9.031L18.584 224.209 4.789 242.161l12.363 12.115a11.969 11.969 0 0 0 8.343 3.359l109.117-.138c5.479 0 10.27-3.717 11.619-9.031l56.858-220.409a12.01 12.01 0 0 0-2.643-10.986z" fill="#0f3336"/><path d="m121.176 244.474-109.117.138c-7.875 0-13.629-7.407-11.674-15.034L57.269 9.169A12.042 12.042 0 0 1 68.889.138L178.006 0c7.875 0 13.629 7.407 11.674 15.034l-56.858 220.409c-1.377 5.314-6.168 9.031-11.647 9.031z" fill="#fff"/><path d="m121.176 244.474-109.117.138c-7.875 0-13.629-7.407-11.674-15.034L57.269 9.169A12.042 12.042 0 0 1 68.889.138L178.006 0c7.875 0 13.629 7.407 11.674 15.034l-56.858 220.409c-1.377 5.314-6.168 9.031-11.647 9.031z" fill="url(#d)"/><path d="M174.783 109.227c-1.502-1.459-2.308-4.181-1.829-6.119l5.291-20.512c.501-1.938 2.112-2.308 3.615-.849 1.502 1.459 2.308 4.203 1.807 6.119l-5.27 20.468c-.479 1.96-2.112 2.352-3.615.893z" fill="#fff"/></svg></g><g transform="translate(960.0 2024.0) rotate(0.0 209.0 177.0) scale(2.0030956933442594 2.005767999501391)"><svg width="208.677" height="176.491" viewBox="0 0 208.677 176.491"><linearGradient id="e" gradientTransform="matrix(1 0 -.249328 1 2829.913 0)" gradientUnits="userSpaceOnUse" x1="-2645.64" x2="-2786.341" y1="142.872" y2="10.182"><stop offset="0" stop-color="#59b6e3"/><stop offset="1" stop-color="#98e8f5"/></linearGradient><linearGradient xmlns:xlink="http://www.w3.org/1999/xlink" id="f" gradientTransform="matrix(1 0 -.49864699 1 5659.826 0)" x1="-5443.688" x2="-5609.628" xlink:href="#e" y1="154.403" y2="-2.088"/><path d="m206.479 19.297.01-.013L192.57 3.056 2.359 157.399l13.245 15.429.002-.005c1.738 2.266 4.545 3.668 8.031 3.668h135.039c7.046 0 14.183-5.712 15.939-12.758l33.67-135.039c.928-3.723.156-7.064-1.807-9.396z" fill="url(#e)"/><path d="M145.01 160.556H9.971c-7.046 0-11.334-5.712-9.577-12.759L34.063 12.759C35.82 5.713 42.956 0 50.003 0h135.039c7.046 0 11.334 5.712 9.577 12.759L160.95 147.798c-1.757 7.046-8.893 12.759-15.94 12.759z" fill="url(#f)"/><path d="M145.01 161.556H9.971c-3.92 0-7.282-1.681-9.224-4.611a1 1 0 0 1 1.667-1.105c1.588 2.396 4.272 3.716 7.557 3.716H145.01c6.604 0 13.319-5.383 14.969-12l33.669-135.039c.849-3.403.186-6.603-1.817-8.781a1 1 0 1 1 1.472-1.354c2.467 2.682 3.3 6.552 2.286 10.619L161.92 148.04c-1.858 7.453-9.444 13.517-16.91 13.517z" fill="#0f3336"/><g fill="#fff"><path d="m132.252 81.399-70.092-.015 7.271-29.164c4.727-18.96 24.27-34.424 43.591-34.472 19.353-.048 31.263 15.384 26.522 34.4l-7.293 29.25zM76.874 69.761l46.409-.013 4.385-17.587c3.137-12.583-4.74-22.8-17.547-22.774-12.794.025-25.74 10.263-28.871 22.822z"/><path d="m144.833 63.969-86.548.069c-3.266.003-6.571 2.65-7.385 5.916l-6.114 24.521c-6.642 26.641 9.922 48.28 37.044 48.333 27.175.053 54.646-21.577 61.312-48.311l6.137-24.613c.815-3.269-1.176-5.918-4.445-5.915zm-47.683 54.36-18.407-.022 8.056-16.103c-2.354-1.7-3.456-4.72-2.595-8.171 1.325-5.315 6.784-9.625 12.194-9.626 5.413 0 8.727 4.311 7.401 9.629-.861 3.454-3.472 6.474-6.676 8.172l.026 16.12z"/></g></svg></g><g transform="translate(384.0 226.0) rotate(0.0 320.0 335.0) scale(2.0022713265360395 2.000316467978516)"><svg width="319.637" height="334.947" viewBox="0 0 319.637 334.947"><linearGradient id="g" gradientTransform="matrix(1 0 -.04366094 1 484.019 0)" gradientUnits="userSpaceOnUse" x1="-223.988" x2="-398.378" y1="349.237" y2="12.803"><stop offset="0" stop-color="#59b6e3"/><stop offset="1" stop-color="#ae73fb"/></linearGradient><path d="M17.738 334.947h207.855c7.567 0 15.273-6.134 17.211-13.701l76.387-298.132c.892-3.483.407-6.663-1.114-9.08C316.293 11.2 310.34 3.73 310.34 3.73L101.146 9.413c-7.567 0-15.273 6.134-17.211 13.701L1.76 321.217s5.707 8.254 8.223 10.764c1.862 1.857 4.537 2.966 7.755 2.966z" fill="#0f3336"/><path d="M10.636 325.534h207.855c7.567 0 15.273-6.134 17.211-13.701L312.09 13.701C314.029 6.134 309.466 0 301.9 0H94.044c-7.567 0-15.273 6.134-17.211 13.701L.446 311.833c-1.939 7.567 2.624 13.701 10.19 13.701z" fill="url(#g)"/><g fill="#0f3336"><ellipse cx="121.298" cy="299.254" rx="11.925" ry="9.236" transform="matrix(.75068789 -.66065702 .66065702 .75068789 -167.463 154.743)"/><path d="M301.9 4c2.314 0 4.226.821 5.383 2.312 1.247 1.606 1.578 3.878.932 6.396L231.828 310.84c-1.485 5.796-7.593 10.694-13.336 10.694H10.636c-2.314 0-4.226-.821-5.383-2.312-1.247-1.606-1.578-3.878-.933-6.397L80.708 14.694C82.193 8.898 88.3 4.001 94.044 4.001h207.855M301.9 0H94.044c-7.567 0-15.272 6.134-17.211 13.701L.446 311.833c-1.939 7.567 2.624 13.701 10.19 13.701h207.855c7.567 0 15.273-6.134 17.211-13.701L312.09 13.701C314.029 6.134 309.466 0 301.9 0z"/></g></svg></g><g transform="translate(1876.0 1602.0) rotate(0.0 427.0 489.0) scale(1.919532479208811 1.9210371243370654)"><svg width="444.9" height="509.1" viewBox="0 0 444.9 509.1"><linearGradient id="h" gradientUnits="userSpaceOnUse" x1="215.753" x2="215.753" y1="369.094" y2="-95.828"><stop offset="0" stop-color="#59b6e3"/><stop offset=".508" stop-color="#ae73fb"/><stop offset="1" stop-color="#ff619e"/></linearGradient><path d="M21.1 1h322c6.5 0 12.3 4.1 14.5 10.3l86.3 243.3H87.1L5.2 23.5C1.3 12.5 9.4 1 21.1 1z" fill="#fff"/><path d="M443.9 255.5H87.1c-.4 0-.8-.3-.9-.7L1.7 16.8C.3 12.9.9 8.7 3.3 5.3S9.5 0 13.6 0h329.5c6.9 0 13.1 4.4 15.5 10.9l86.3 243.3c.1.3.1.6-.1.9-.3.3-.6.4-.9.4zm-356.1-2h354.7L356.7 11.6c-2-5.7-7.5-9.6-13.6-9.6H13.6C10.1 2 7 3.6 4.9 6.5c-2 2.9-2.5 6.4-1.3 9.7z" fill="#0f3336"/><path d="M443.9 254.5H87.1L1.4 496.1c-2.1 5.8 2.3 12 8.5 12h333.2c6.5 0 12.3-4.1 14.5-10.3z" fill="#fff"/><path d="M343.1 509.1H10.2c-3.4 0-6.4-1.6-8.4-4.3s-2.4-6.2-1.3-9.3L86 254.3c.1-.4.5-.7.9-.7h356.8c.3 0 .6.2.8.4.2.3.2.6.1.9l-86.3 243.3c-2.1 6.5-8.3 10.9-15.2 10.9zM87.8 255.5 2.5 496.1c-.9 2.6-.5 5.3 1 7.5 1.6 2.2 4 3.5 6.7 3.5h332.9c6.1 0 11.5-3.9 13.6-9.6l85.8-241.9H87.8z" fill="#0f3336"/><path d="M334.1 1H13.6C5.6 1 0 8.9 2.7 16.5l84.4 238h347.8L348.6 11.3c-2.2-6.2-8-10.3-14.5-10.3z" fill="#0f3336"/><path d="M17.5 9.2h314.1c4 0 7.6 2.5 8.9 6.3L420 239.4c1.2 3.4-1.3 6.9-4.9 6.9H97.3c-2.7 0-5.2-1.7-6.1-4.3L11.6 17.6c-1.5-4.1 1.6-8.4 5.9-8.4z" fill="url(#h)"/><path d="M334.1 509.1H216.8c-.6 0-1-.4-1-1s.4-1 1-1h117.4c6.1 0 11.5-3.9 13.6-9.6l86.3-243.3c.2-.5.8-.8 1.3-.6s.8.8.6 1.3l-86.3 243.3c-2.5 6.5-8.7 10.9-15.6 10.9z" fill="#0f3336"/><path d="M434.9 255.5c-.4 0-.8-.3-.9-.7L347.7 11.6c-2-5.7-7.5-9.6-13.6-9.6h-18.2c-.6 0-1-.4-1-1s.4-1 1-1h18.2c6.9 0 13.1 4.4 15.5 10.9l86.3 243.3c.2.5-.1 1.1-.6 1.3h-.4zm-25.7 8.3h-306c-2.2 0-4.1 1.4-4.8 3.4L53.8 393c-1.1 3.1 1.2 6.4 4.5 6.4h304.3c3.5 0 6.6-2.2 7.8-5.5l43.7-123.3c1.1-3.3-1.3-6.8-4.9-6.8zM227.4 500.6H107.7c-2.2 0-4.1-1-5.4-2.8s-1.5-3.9-.8-6l29.2-82.3c.9-2.6 3.4-4.4 6.2-4.4h119.6c2.2 0 4.1 1 5.4 2.8s1.5 3.9.8 6l-29.2 82.3c-.9 2.7-3.3 4.4-6.1 4.4zm-90.5-93.4c-1.9 0-3.7 1.2-4.3 3l-29.2 82.3c-.5 1.4-.3 2.9.6 4.2.9 1.2 2.2 1.9 3.7 1.9h119.6c1.9 0 3.7-1.2 4.3-3l29.2-82.3c.5-1.4.3-2.9-.6-4.2-.9-1.2-2.2-1.9-3.7-1.9z" fill="#0f3336"/><g fill="#fff"><path d="M417 295.8H77.7c-.6 0-1-.4-1-1s.4-1 1-1H417c.6 0 1 .4 1 1s-.5 1-1 1zm-18 35.5H69c-.6 0-1-.4-1-1s.4-1 1-1h330c.6 0 1 .4 1 1s-.5 1-1 1zm-18 35.5H57.6c-.6 0-1-.4-1-1s.4-1 1-1H381c.6 0 1 .4 1 1s-.5 1-1 1z"/><path d="M291.3 400.9c-.1 0-.2 0-.3-.1-.5-.2-.8-.7-.6-1.3l48.6-141c.2-.5.7-.8 1.3-.6.5.2.8.7.6 1.3l-48.6 141c-.2.5-.6.7-1 .7zm-28.8-34.5c-.1 0-.2 0-.3-.1-.5-.2-.8-.8-.6-1.3l35.9-103.7c.2-.5.7-.8 1.3-.6.5.2.8.8.6 1.3l-35.9 103.7c-.2.4-.6.7-1 .7zm-40.8.2c-.1 0-.2 0-.3-.1-.5-.2-.8-.8-.6-1.3l37.5-107.7c.2-.5.8-.8 1.3-.6s.8.8.6 1.3L222.6 366c-.1.4-.5.6-.9.6zm-40.7-.2c-.1 0-.2 0-.3-.1-.5-.2-.8-.8-.6-1.3l36.5-104c.2-.5.8-.8 1.3-.6s.8.8.6 1.3l-36.5 104c-.2.4-.5.7-1 .7zm-40.7 0c-.1 0-.2 0-.3-.1-.5-.2-.8-.8-.6-1.3l37.2-105.5c.2-.5.8-.8 1.3-.6s.8.8.6 1.3l-37.2 105.5c-.2.4-.6.7-1 .7zM112 331.3c-.1 0-.2 0-.3-.1-.5-.2-.8-.8-.6-1.3l23.6-66.5c.2-.5.8-.8 1.3-.6s.8.8.6 1.3L113 330.6c-.2.4-.6.7-1 .7zM52.6 498.8c-.1 0-.2 0-.3-.1-.5-.2-.8-.8-.6-1.3l46.8-132.1c.2-.5.8-.8 1.3-.6s.8.8.6 1.3L53.6 498.1c-.2.5-.6.7-1 .7zM356 331.3c-.1 0-.2 0-.3-.1-.5-.2-.8-.7-.6-1.3l12.2-35.5c.2-.5.7-.8 1.3-.6.5.2.8.7.6 1.3L357 330.6c-.2.4-.6.7-1 .7zm-23.7 69.1c-.1 0-.2 0-.3-.1-.5-.2-.8-.7-.6-1.3l11.6-33.8c.2-.5.7-.8 1.3-.6.5.2.8.7.6 1.3l-11.6 33.8c-.2.4-.6.7-1 .7z"/></g></svg></g><g transform="translate(468.0 1820.0) rotate(0.0 150.0 140.0) scale(2.015045674368619 2.028485735398525)"><svg width="148.88" height="138.034" viewBox="0 0 148.88 138.034"><linearGradient id="i" gradientTransform="matrix(.76040597 .64944805 -.83815071 .59923867 1216.613 4000.554)" gradientUnits="userSpaceOnUse" x1="-4013.429" x2="-3906.518" y1="-2202.664" y2="-2342.14"><stop offset="0" stop-color="#88cd9a"/><stop offset="1" stop-color="#a6ffbb"/></linearGradient><path d="M118.823 8.778c31.374 12.742 39.494 51.081 18.137 85.632s-64.103 52.23-95.477 39.488c-5.883-2.389-9.165-3.588-9.165-3.588S5.993 76.339 23.346 48.266c17.517-28.339 87.039-42.915 87.039-42.915l8.438 3.427z" fill="#88cd9a"/><ellipse cx="68.726" cy="66.697" fill="url(#i)" rx="75.507" ry="58.882" transform="matrix(.74956834 -.66192696 .66192696 .74956834 -26.937 62.195)"/><path d="M52.002 134.371c-7.768 0-15.325-1.346-22.322-4.188a1 1 0 1 1 .753-1.853c6.774 2.751 14.103 4.056 21.629 4.057 26.793.002 56.166-16.523 72.621-43.144 11.353-18.367 14.692-38.612 9.162-55.545-4.307-13.189-13.834-23.358-26.825-28.634a1 1 0 1 1 .753-1.853c13.546 5.502 23.48 16.108 27.974 29.866 5.713 17.494 2.301 38.349-9.362 57.218-16.815 27.204-46.895 44.075-74.382 44.076z" fill="#0f3336"/><path d="M69.74 83.243c-2.641 2.997-5.398 5.215-8.275 6.651-2.877 1.437-6.052 2.183-9.526 2.241-5.601.093-9.51-1.354-11.728-4.343-2.218-2.987-2.637-7.447-1.256-13.377 1.963-8.437 6.083-15.556 12.36-21.357 6.276-5.8 13.029-8.761 20.26-8.88 2.836-.047 5.164.495 6.985 1.625 1.82 1.13 3.136 2.832 3.95 5.104l4.026-5.236 9.465-.156L80.815 77.31c-.196.391-.378.789-.542 1.196a6.902 6.902 0 0 0-.334.981c-.288 1.236-.078 2.156.629 2.759.707.604 1.893.892 3.56.864 1.383-.023 2.908-.399 4.58-1.131 1.671-.731 3.31-1.742 4.917-3.035 3.705-2.874 6.787-6.213 9.244-10.017 2.456-3.803 4.21-7.964 5.262-12.483 1.972-8.473.304-15.381-5.001-20.727-5.307-5.345-13.153-7.932-23.539-7.761-4.998.083-9.791.76-14.376 2.031a52.614 52.614 0 0 0-12.969 5.542c-6.964 4.124-12.769 9.231-17.417 15.321s-7.811 12.736-9.487 19.938c-2.522 10.838-.868 19.435 4.962 25.791 5.831 6.356 14.877 9.434 27.143 9.231 5.743-.095 11.554-1.053 17.433-2.873 5.879-1.821 11.558-4.411 17.037-7.772l2.918 6.123c-6.368 4.149-12.83 7.298-19.386 9.446-6.556 2.147-13.13 3.277-19.724 3.386-6.806.112-12.863-.641-18.172-2.258-5.309-1.618-9.788-4.067-13.438-7.347-4.501-4.181-7.467-9.037-8.898-14.57-1.432-5.532-1.325-11.828.318-18.889 1.372-5.895 3.611-11.533 6.717-16.912s6.976-10.287 11.61-14.724c6.733-6.476 14.169-11.417 22.306-14.822s16.726-5.182 25.765-5.331c5.99-.099 11.431.612 16.321 2.131 4.89 1.52 8.943 3.712 12.161 6.577 3.922 3.628 6.509 7.796 7.762 12.505 1.252 4.709 1.184 10.047-.204 16.012-1.356 5.825-3.768 11.219-7.235 16.182-3.468 4.963-7.789 9.228-12.962 12.795-2.943 2.019-5.996 3.572-9.163 4.662s-6.328 1.66-9.483 1.713c-3.758.062-6.412-.633-7.963-2.084-1.552-1.451-2.026-3.624-1.423-6.517zm7.933-22.707c.205-2.852-.308-5.015-1.535-6.489-1.228-1.474-3.137-2.19-5.724-2.147-4.041.067-8.06 2.314-12.056 6.74-3.996 4.427-6.709 9.711-8.139 15.854-.756 3.248-.613 5.707.428 7.378s2.926 2.484 5.656 2.439c2.942-.049 5.885-1.205 8.832-3.469 2.945-2.264 5.276-5.186 6.993-8.767l5.545-11.538z" fill="#fff"/></svg></g></svg>